<svg xmlns="http://www.w3.org/2000/svg" width="21" height="18.955" viewBox="0 0 21 18.955"><defs><style>.a{opacity:0.5;}.b{fill:none;stroke:#000;stroke-linecap:round;stroke-linejoin:round;stroke-miterlimit:10;}</style></defs><g class="a" transform="translate(0.5 0.5)"><path class="b" d="M9.43,48.814l.04,0v0a4.955,4.955,0,0,1,9.464-2.074,3.738,3.738,0,0,1,5.282,2.085c.07-.006.141-.011.214-.011a2.508,2.508,0,0,1,0,5.016h-15a2.508,2.508,0,0,1,0-5.016Z" transform="translate(-6.93 -35.876)"/><g transform="translate(11.383)"><ellipse class="b" cx="1.923" cy="1.929" rx="1.923" ry="1.929" transform="translate(2.133 2.14)"/><line class="b" y2="0.814" transform="translate(4.056)"/><line class="b" x1="0.573" y2="0.576" transform="translate(6.351 1.192)"/><line class="b" x1="0.811" transform="translate(7.301 4.07)"/><line class="b" x1="0.574" y1="0.576" transform="translate(6.351 6.372)"/><line class="b" y1="0.814" transform="translate(4.056 7.326)"/><line class="b" y1="0.576" x2="0.574" transform="translate(1.188 6.372)"/><line class="b" x2="0.811" transform="translate(0 4.07)"/><line class="b" x2="0.574" y2="0.576" transform="translate(1.188 1.192)"/></g></g></svg>