<svg xmlns="http://www.w3.org/2000/svg" width="20" height="26" viewBox="0 0 20 26"><path d="M35.92,15a9.932,9.932,0,0,0-10,9.845c0,5.038,7.969,13.924,8.876,14.927L35.92,41l1.124-1.225c.907-1,8.876-9.892,8.876-14.927A9.932,9.932,0,0,0,35.92,15Zm0,23.778s-8.492-9.32-8.492-13.933a8.492,8.492,0,0,1,16.982,0C44.412,29.459,35.92,38.778,35.92,38.778Z" transform="translate(-25.92 -15)"/><path d="M50.922,35.58A3.716,3.716,0,1,0,54.7,39.3,3.749,3.749,0,0,0,50.922,35.58Zm0,5.945a2.231,2.231,0,1,1,2.271-2.23,2.251,2.251,0,0,1-2.271,2.23Z" transform="translate(-40.922 -29.635)"/></svg>