<svg xmlns="http://www.w3.org/2000/svg" width="18" height="18" viewBox="0 0 18 18"><defs><style>.a,.b{fill:none;}.a{stroke:#bcbccb;}</style></defs><g transform="translate(4 4)"><path class="a" d="M11.638,4.55,12.6,2.713,11.375,1.487,9.538,2.45a3.135,3.135,0,0,0-.962-.35L7.875,0H6.125l-.7,2.012a3.657,3.657,0,0,0-.875.35L2.713,1.4,1.4,2.713,2.363,4.55a3.657,3.657,0,0,0-.35.875L0,6.125v1.75l2.012.7c.088.35.263.612.35.962L1.4,11.375,2.625,12.6l1.837-.962a3.135,3.135,0,0,0,.963.35L6.125,14h1.75l.7-2.012c.35-.088.612-.262.962-.35l1.837.962L12.6,11.375l-.962-1.837a3.135,3.135,0,0,0,.35-.962L14,7.875V6.125l-2.012-.7A3.657,3.657,0,0,0,11.638,4.55ZM7,9.625A2.578,2.578,0,0,1,4.375,7,2.578,2.578,0,0,1,7,4.375,2.578,2.578,0,0,1,9.625,7,2.578,2.578,0,0,1,7,9.625Z" transform="translate(-2 -2)"/><path class="b" d="M0,0H18V18H0Z" transform="translate(-4 -4)"/></g></svg>