<svg xmlns="http://www.w3.org/2000/svg" width="24" height="24" viewBox="0 0 24 24"><defs><style>.a,.c{fill:none;}.b{fill:#fff;}.c{stroke:#fff;}</style></defs><path class="a" d="M0,0H24V24H0Z"/><path class="b" d="M24,72.9a2.256,2.256,0,0,1-1.333.676c-1,0-1.667-1.351-2.667-1.351s-1.667,1.351-2.666,1.351-1.667-1.351-2.667-1.351S13,73.574,12,73.574s-1.667-1.351-2.667-1.351-1.667,1.351-2.667,1.351S5,72.223,4,72.223s-1.667,1.351-2.667,1.351A2.253,2.253,0,0,1,0,72.9v.649a2.256,2.256,0,0,0,1.333.674c1,0,1.667-1.351,2.667-1.351s1.667,1.351,2.667,1.351,1.667-1.351,2.667-1.351S11,74.223,12,74.223s1.667-1.351,2.667-1.351,1.667,1.351,2.667,1.351S19,72.872,20,72.872s1.667,1.351,2.667,1.351A2.257,2.257,0,0,0,24,73.547V72.9Z" transform="translate(0 -52.223)"/><path class="b" d="M24,72.9a2.256,2.256,0,0,1-1.333.676c-1,0-1.667-1.351-2.667-1.351s-1.667,1.351-2.666,1.351-1.667-1.351-2.667-1.351S13,73.574,12,73.574s-1.667-1.351-2.667-1.351-1.667,1.351-2.667,1.351S5,72.223,4,72.223s-1.667,1.351-2.667,1.351A2.253,2.253,0,0,1,0,72.9v.649a2.256,2.256,0,0,0,1.333.674c1,0,1.667-1.351,2.667-1.351s1.667,1.351,2.667,1.351,1.667-1.351,2.667-1.351S11,74.223,12,74.223s1.667-1.351,2.667-1.351,1.667,1.351,2.667,1.351S19,72.872,20,72.872s1.667,1.351,2.667,1.351A2.257,2.257,0,0,0,24,73.547V72.9Z" transform="translate(0 -51.223)"/><path class="c" d="M34.792,0s-5.625,8.25-5.625,12.375a5.625,5.625,0,1,0,11.25,0C40.417,8.25,34.792,0,34.792,0Z" transform="translate(-23 1)"/><g transform="translate(0 3)"><line class="c" y2="6" transform="translate(12 3.5)"/><line class="c" y2="6" transform="translate(15 6.5) rotate(90)"/><line class="c" y2="6" transform="translate(15 11.5) rotate(90)"/></g></svg>