<svg xmlns="http://www.w3.org/2000/svg" width="24" height="24" viewBox="0 0 24 24"><defs><style>.a{fill:#fff;}</style></defs><g transform="translate(-2 -1)">
<path class="a" d="M40.735,36.635a.365.365,0,0,0-.587,0c-.183.251-1.614,2.292-1.064,3.546a1.578,1.578,0,0,0,2.752,0C42.386,38.927,40.919,36.85,40.735,36.635Zm.44,3.224a.851.851,0,0,1-1.394,0c-.257-.537.22-1.612.7-2.364C40.919,38.282,41.4,39.321,41.175,39.858Z" transform="translate(-16.459 -15.987)"/>
<path class="a" d="M7.15,6.074H3.445a.518.518,0,0,0-.545.552v8.548a.518.518,0,0,0,.545.552H7.2a.518.518,0,0,0,.545-.552V13.685h4.959a.282.282,0,0,1,.218.11,3.488,3.488,0,0,0,2.561,1.268,4.264,4.264,0,0,0,2.779-1.324c2.561.221,3.488,2.482,3.815,3.805a1.919,1.919,0,0,0,1.8,1.434c.054,0,3.324.386
,3-2.151-.763-6.508-6.43-8.107-8.119-8.438-.109,0-.163-.11-.218-.221a1.363,1.363,0,0,0-1.308-.882h-.109V4.861h.436a2.223,2.223,0,0,0,1.689.772,
2.316,2.316,0,0,0,0-4.633,2.223,2.223,0,0,0-1.689.772h-4.2A2.223,2.223,0,0,0,11.673,1a2.316,2.316,0,0,0,0,4.633,2.223,2.223,0,0,0,1.689-.772H13.8V7.287H13.69a1.376,
1.376,0,0,0-1.253.827.3.3,0,0,1-.272.165H7.75V6.625A.643.643,0,0,0,7.15,6.074Zm-.545,8.6H3.99v-7.5H6.66v7.5ZM13.09,3.758a.67.67,0,0,0-.436.221A1.2,
1.2,0,1,1,11.673,2.1a1.161,1.161,0,0,1,.981.5.494.494,0,0,0,.436.221h4.741a.67.67,0,0,0,.436-.221,1.161,1.161,0,0,1,.981-.5,1.213,1.213,0,0,1,0,
2.427,1.161,1.161,0,0,1-.981-.5.555.555,0,0,0-.436-.276H13.09Zm1.8,1.1h1.144V7.287H14.889ZM12.164,9.438a1.376,1.376,0,0,0,1.253-.827.3.3,0,0,1,
.272-.165h3.542a.279.279,0,0,1,.272.221,1.252,1.252,0,0,0,1.035.827c1.526.276,6.594,1.71,7.357,7.445a.782.782,0,0,1-.763.882H23.989a.819.819,0,0,
1-.763-.607c-.708-2.868-2.561-4.522-5.068-4.633a.615.615,0,0,0-.436.165,3.366,3.366,0,0,1-2.18,1.158,2.341,2.341,0,0,1-1.744-.882,1.48,1.48,0,0,
0-1.035-.441H7.8V9.438Z" transform="translate(-0.9)"/></g></svg>