<?xml version="1.0" standalone="no"?>
<!DOCTYPE svg PUBLIC "-//W3C//DTD SVG 20010904//EN"
 "http://www.w3.org/TR/2001/REC-SVG-20010904/DTD/svg10.dtd">
<svg version="1.0" xmlns="http://www.w3.org/2000/svg"
 width="24.000000pt" height="24.000000pt" viewBox="0 0 24.000000 24.000000"
 preserveAspectRatio="xMidYMid meet">

<g transform="translate(0.000000,24.000000) scale(0.100000,-0.100000)"
fill="#000000" stroke="none">
<path d="M20 222 c0 -9 10 -11 34 -7 20 4 36 2 40 -4 4 -6 0 -11 -8 -11 -9 0
-16 -4 -16 -10 0 -5 -13 -10 -30 -10 -25 0 -30 -4 -30 -25 0 -22 4 -25 35 -25
19 0 35 -4 35 -10 0 -5 9 -10 19 -10 11 0 23 5 26 10 10 16 45 12 45 -5 0 -10
10 -15 30 -15 26 0 30 4 30 28 0 37 -17 52 -57 52 -18 0 -33 5 -33 10 0 6 -7
10 -16 10 -8 0 -12 5 -9 11 4 5 19 9 33 7 15 -2 28 1 30 7 1 5 -32 9 -78 10
-59 0 -80 -3 -80 -13z"/>
<path d="M182 51 c-8 -23 -7 -32 3 -41 27 -22 45 12 29 54 -9 24 -21 19 -32
-13z"/>
</g>
</svg>
